<?xml version="1.0" encoding="iso-8859-1"?>
<!-- Generator: Adobe Illustrator 23.1.0, SVG Export Plug-In . SVG Version: 6.00 Build 0)  -->
<svg version="1.1" id="Layer_1" xmlns="http://www.w3.org/2000/svg" xmlns:xlink="http://www.w3.org/1999/xlink" x="0px" y="0px"
	 viewBox="0 0 235 70" style="enable-background:new 0 0 235 70;" xml:space="preserve">
<title>logo</title>
<g>
	<g id="Layer_2-2">
		<polygon style="fill:#E2E2E2;" points="176,0 147,0 147,29 235,29 235,0 205,0 205,15 176,15 "/>
		<polygon style="fill:#F20422;" points="29,56 29,70 59,70 59,41 44,41 44,56 "/>
		<polygon style="fill:#F20422;" points="29,55 15,55 15,70 0,70 0,41 29,41 "/>
		<polygon style="fill:#F20422;" points="205,55 191,55 191,70 176,70 176,41 205,41 "/>
		<polygon style="fill:#F20422;" points="205,56 205,70 235,70 235,41 220,41 220,56 "/>
		<polygon points="59,15 29,15 29,30 0,30 0,0 59,0 "/>
		<polygon points="59,15 59,29 118,29 118,0 88,0 88,15 "/>
		<polygon style="fill:#F20422;" points="132,41 118,41 118,70 162,70 162,41 147,41 147,56 132,56 "/>
		<rect x="74" y="41" style="fill:#F20422;" width="29" height="29"/>
	</g>
</g>
</svg>
